<mxfile host="app.diagrams.net" modified="2023-09-08T21:12:43.047Z" agent="Mozilla/5.0 (Windows NT 10.0; Win64; x64) AppleWebKit/537.36 (KHTML, like Gecko) Chrome/114.0.0.0 YaBrowser/23.7.4.971 Yowser/2.5 Safari/537.36" etag="EiYUNq4vE04EDMARoO8s" version="21.7.4" type="device">
  <diagram name="Page-1" id="c4acf3e9-155e-7222-9cf6-157b1a14988f">
    <mxGraphModel dx="2237" dy="791" grid="1" gridSize="10" guides="1" tooltips="1" connect="1" arrows="1" fold="1" page="1" pageScale="1" pageWidth="850" pageHeight="1100" background="none" math="0" shadow="0">
      <root>
        <mxCell id="0" />
        <mxCell id="1" parent="0" />
        <mxCell id="RkP8MyHlNA7ZszthQXEs-23" value="Управляют местом проведения" style="ellipse;whiteSpace=wrap;html=1;" parent="1" vertex="1">
          <mxGeometry x="150" y="510" width="150" height="110" as="geometry" />
        </mxCell>
        <mxCell id="h0lokl5q4slF8wbgw01o-2" value="выступающие" style="shape=umlActor;verticalLabelPosition=bottom;verticalAlign=top;html=1;outlineConnect=0;" parent="1" vertex="1">
          <mxGeometry x="425" y="210" width="30" height="60" as="geometry" />
        </mxCell>
        <mxCell id="h0lokl5q4slF8wbgw01o-6" value="регистрация для выступления" style="ellipse;whiteSpace=wrap;html=1;" parent="1" vertex="1">
          <mxGeometry x="210" y="100" width="135" height="90" as="geometry" />
        </mxCell>
        <mxCell id="h0lokl5q4slF8wbgw01o-14" value="&lt;span style=&quot;text-align: start; background-color: rgb(255, 255, 255); font-size: 14px; color: rgb(32, 33, 34); font-family: sans-serif;&quot;&gt;Администрация&lt;br&gt;&lt;/span&gt;" style="shape=umlActor;verticalLabelPosition=bottom;verticalAlign=top;html=1;outlineConnect=0;" parent="1" vertex="1">
          <mxGeometry x="470" y="690" width="30" height="60" as="geometry" />
        </mxCell>
        <mxCell id="h0lokl5q4slF8wbgw01o-17" value="Управление выступлениями" style="ellipse;whiteSpace=wrap;html=1;" parent="1" vertex="1">
          <mxGeometry x="190" y="689.9999999999998" width="120" height="80" as="geometry" />
        </mxCell>
        <mxCell id="tB-QFLmZolN8to9HHY1h-14" value="Репетиция" style="ellipse;whiteSpace=wrap;html=1;" parent="1" vertex="1">
          <mxGeometry x="130" y="240" width="120" height="80" as="geometry" />
        </mxCell>
        <mxCell id="WWHxNUskUDmkUUVKjQY9-1" value="Нанимают людей для проведения" style="ellipse;whiteSpace=wrap;html=1;" parent="1" vertex="1">
          <mxGeometry x="200" y="790" width="120" height="80" as="geometry" />
        </mxCell>
        <mxCell id="WWHxNUskUDmkUUVKjQY9-5" value="Оснащают залы для выступления" style="ellipse;whiteSpace=wrap;html=1;" parent="1" vertex="1">
          <mxGeometry x="-190" y="730" width="140" height="115" as="geometry" />
        </mxCell>
        <mxCell id="WWHxNUskUDmkUUVKjQY9-8" value="выступление" style="ellipse;whiteSpace=wrap;html=1;" parent="1" vertex="1">
          <mxGeometry x="217.5" y="320" width="120" height="80" as="geometry" />
        </mxCell>
        <mxCell id="jVFRso-l5CTJYv2oj0HA-2" value="Пользователь&lt;br&gt;" style="shape=umlActor;verticalLabelPosition=bottom;verticalAlign=top;html=1;outlineConnect=0;" vertex="1" parent="1">
          <mxGeometry x="50" y="150" width="30" height="60" as="geometry" />
        </mxCell>
        <mxCell id="jVFRso-l5CTJYv2oj0HA-4" value="покупка билета" style="ellipse;whiteSpace=wrap;html=1;" vertex="1" parent="1">
          <mxGeometry x="-210" y="150" width="135" height="90" as="geometry" />
        </mxCell>
        <mxCell id="jVFRso-l5CTJYv2oj0HA-5" value="" style="endArrow=none;dashed=1;html=1;rounded=0;exitX=0;exitY=0.5;exitDx=0;exitDy=0;" edge="1" parent="1">
          <mxGeometry width="50" height="50" relative="1" as="geometry">
            <mxPoint x="-210" y="195" as="sourcePoint" />
            <mxPoint x="-310" y="200" as="targetPoint" />
          </mxGeometry>
        </mxCell>
        <mxCell id="jVFRso-l5CTJYv2oj0HA-6" value="подтверждение билета" style="ellipse;whiteSpace=wrap;html=1;" vertex="1" parent="1">
          <mxGeometry x="-440" y="170" width="135" height="90" as="geometry" />
        </mxCell>
        <mxCell id="jVFRso-l5CTJYv2oj0HA-7" value="&lt;span style=&quot;text-align: start; background-color: rgb(255, 255, 255); font-size: 14px; color: rgb(32, 33, 34); font-family: sans-serif;&quot;&gt;Нанятые люди&lt;br&gt;&lt;/span&gt;" style="shape=umlActor;verticalLabelPosition=bottom;verticalAlign=top;html=1;outlineConnect=0;" vertex="1" parent="1">
          <mxGeometry x="100" y="800" width="30" height="60" as="geometry" />
        </mxCell>
        <mxCell id="jVFRso-l5CTJYv2oj0HA-8" value="" style="endArrow=classic;html=1;rounded=0;entryX=0;entryY=0.5;entryDx=0;entryDy=0;" edge="1" parent="1" source="jVFRso-l5CTJYv2oj0HA-7">
          <mxGeometry width="50" height="50" relative="1" as="geometry">
            <mxPoint x="240" y="844.9998360655737" as="sourcePoint" />
            <mxPoint x="-50" y="804.59" as="targetPoint" />
          </mxGeometry>
        </mxCell>
        <mxCell id="jVFRso-l5CTJYv2oj0HA-9" value="Продажа билетов" style="ellipse;whiteSpace=wrap;html=1;" vertex="1" parent="1">
          <mxGeometry x="-120" y="580" width="140" height="115" as="geometry" />
        </mxCell>
        <mxCell id="jVFRso-l5CTJYv2oj0HA-10" value="" style="endArrow=classic;html=1;rounded=0;entryX=1;entryY=1;entryDx=0;entryDy=0;" edge="1" parent="1" target="jVFRso-l5CTJYv2oj0HA-9">
          <mxGeometry width="50" height="50" relative="1" as="geometry">
            <mxPoint x="90" y="810" as="sourcePoint" />
            <mxPoint x="110" y="470" as="targetPoint" />
          </mxGeometry>
        </mxCell>
        <mxCell id="jVFRso-l5CTJYv2oj0HA-12" value="" style="endArrow=classic;html=1;rounded=0;entryX=0.973;entryY=0.764;entryDx=0;entryDy=0;entryPerimeter=0;" edge="1" parent="1" target="RkP8MyHlNA7ZszthQXEs-23">
          <mxGeometry width="50" height="50" relative="1" as="geometry">
            <mxPoint x="460" y="700" as="sourcePoint" />
            <mxPoint x="110" y="490" as="targetPoint" />
          </mxGeometry>
        </mxCell>
        <mxCell id="jVFRso-l5CTJYv2oj0HA-13" value="" style="endArrow=classic;html=1;rounded=0;entryX=1;entryY=1;entryDx=0;entryDy=0;" edge="1" parent="1" target="h0lokl5q4slF8wbgw01o-6">
          <mxGeometry width="50" height="50" relative="1" as="geometry">
            <mxPoint x="410" y="220" as="sourcePoint" />
            <mxPoint x="110" y="490" as="targetPoint" />
          </mxGeometry>
        </mxCell>
        <mxCell id="jVFRso-l5CTJYv2oj0HA-14" value="" style="endArrow=classic;html=1;rounded=0;entryX=1.033;entryY=0.413;entryDx=0;entryDy=0;entryPerimeter=0;" edge="1" parent="1" target="tB-QFLmZolN8to9HHY1h-14">
          <mxGeometry width="50" height="50" relative="1" as="geometry">
            <mxPoint x="420" y="240" as="sourcePoint" />
            <mxPoint x="110" y="490" as="targetPoint" />
          </mxGeometry>
        </mxCell>
        <mxCell id="jVFRso-l5CTJYv2oj0HA-15" value="" style="endArrow=classic;html=1;rounded=0;entryX=0.938;entryY=0.188;entryDx=0;entryDy=0;entryPerimeter=0;" edge="1" parent="1" source="h0lokl5q4slF8wbgw01o-2" target="WWHxNUskUDmkUUVKjQY9-8">
          <mxGeometry width="50" height="50" relative="1" as="geometry">
            <mxPoint x="60" y="540" as="sourcePoint" />
            <mxPoint x="110" y="490" as="targetPoint" />
          </mxGeometry>
        </mxCell>
        <mxCell id="jVFRso-l5CTJYv2oj0HA-16" value="" style="endArrow=classic;html=1;rounded=0;entryX=1;entryY=0.5;entryDx=0;entryDy=0;" edge="1" parent="1" target="jVFRso-l5CTJYv2oj0HA-4">
          <mxGeometry width="50" height="50" relative="1" as="geometry">
            <mxPoint x="40" y="190" as="sourcePoint" />
            <mxPoint x="110" y="490" as="targetPoint" />
          </mxGeometry>
        </mxCell>
        <mxCell id="jVFRso-l5CTJYv2oj0HA-17" value="" style="endArrow=classic;html=1;rounded=0;entryX=1.017;entryY=0.338;entryDx=0;entryDy=0;entryPerimeter=0;" edge="1" parent="1" target="WWHxNUskUDmkUUVKjQY9-1">
          <mxGeometry width="50" height="50" relative="1" as="geometry">
            <mxPoint x="450" y="750" as="sourcePoint" />
            <mxPoint x="110" y="490" as="targetPoint" />
          </mxGeometry>
        </mxCell>
        <mxCell id="jVFRso-l5CTJYv2oj0HA-18" value="" style="endArrow=classic;html=1;rounded=0;entryX=1;entryY=0.5;entryDx=0;entryDy=0;" edge="1" parent="1" target="h0lokl5q4slF8wbgw01o-17">
          <mxGeometry width="50" height="50" relative="1" as="geometry">
            <mxPoint x="450" y="720" as="sourcePoint" />
            <mxPoint x="110" y="490" as="targetPoint" />
          </mxGeometry>
        </mxCell>
      </root>
    </mxGraphModel>
  </diagram>
</mxfile>
